<svg width="530" height="150" viewBox="0 0 530 150" fill="none" xmlns="http://www.w3.org/2000/svg">
<path d="M70.4 40.6V112H97.4C102.8 112 107 111.033 110 109.1C113 107.1 115.233 104.467 116.7 101.2C118.233 97.8667 119.167 94.0667 119.5 89.8C119.833 85.4667 120 80.9667 120 76.3C120 71.6333 119.833 67.1667 119.5 62.9C119.167 58.5667 118.233 54.7667 116.7 51.5C115.233 48.1667 113 45.5333 110 43.6C107 41.6 102.8 40.6 97.4 40.6H70.4ZM89 98.6V54H92.7C94.5 54 95.9333 54.2667 97 54.8C98.0667 55.2667 98.8667 56.3 99.4 57.9C100 59.5 100.367 61.7667 100.5 64.7C100.7 67.6333 100.8 71.5 100.8 76.3C100.8 81.1 100.7 84.9667 100.5 87.9C100.367 90.8333 100 93.1 99.4 94.7C98.8667 96.3 98.0667 97.3667 97 97.9C95.9333 98.3667 94.5 98.6 92.7 98.6H89ZM147.122 40.6V112H165.722V40.6H147.122ZM221.598 61.2H238.998C238.998 53.5333 237.165 47.9667 233.498 44.5C229.898 40.9667 224.032 39.2 215.898 39.2C208.032 39.2 202.165 41.1 198.298 44.9C194.432 48.7 192.498 54.2333 192.498 61.5C192.498 65.7 193.198 69.1 194.598 71.7C196.065 74.3 197.865 76.4 199.998 78C202.198 79.6 204.565 80.9 207.098 81.9C209.632 82.9 211.965 83.9 214.098 84.9C216.298 85.8333 218.098 87 219.498 88.4C220.965 89.7333 221.698 91.5667 221.698 93.9C221.698 95.8333 221.165 97.4667 220.098 98.8C219.098 100.133 217.632 100.8 215.698 100.8C213.898 100.8 212.432 100.2 211.298 99C210.165 97.7333 209.598 95.5667 209.598 92.5V90.8H191.598V93.3C191.598 97.0333 192.132 100.167 193.198 102.7C194.265 105.233 195.798 107.3 197.798 108.9C199.865 110.433 202.365 111.5 205.298 112.1C208.298 112.767 211.732 113.1 215.598 113.1C223.798 113.1 230.065 111.4 234.398 108C238.732 104.533 240.898 99 240.898 91.4C240.898 87.0667 240.132 83.5667 238.598 80.9C237.132 78.1667 235.265 75.9667 232.998 74.3C230.732 72.6333 228.298 71.3 225.698 70.3C223.098 69.2333 220.665 68.2 218.398 67.2C216.132 66.2 214.232 65.0333 212.698 63.7C211.232 62.3 210.498 60.4333 210.498 58.1C210.498 56.5 210.965 55.0667 211.898 53.8C212.832 52.4667 214.298 51.8 216.298 51.8C218.098 51.8 219.432 52.5667 220.298 54.1C221.165 55.5667 221.598 57.3667 221.598 59.5V61.2ZM267.509 40.6V112H286.109V82.6H297.509V112H316.109V40.6H297.509V66.8H286.109V40.6H267.509ZM344.931 40.6V112H388.131V96.8H363.531V82.6H385.731V68H363.531V55.8H387.231V40.6H344.931ZM442.731 61.2H460.131C460.131 53.5333 458.298 47.9667 454.631 44.5C451.031 40.9667 445.165 39.2 437.031 39.2C429.165 39.2 423.298 41.1 419.431 44.9C415.565 48.7 413.631 54.2333 413.631 61.5C413.631 65.7 414.331 69.1 415.731 71.7C417.198 74.3 418.998 76.4 421.131 78C423.331 79.6 425.698 80.9 428.231 81.9C430.765 82.9 433.098 83.9 435.231 84.9C437.431 85.8333 439.231 87 440.631 88.4C442.098 89.7333 442.831 91.5667 442.831 93.9C442.831 95.8333 442.298 97.4667 441.231 98.8C440.231 100.133 438.765 100.8 436.831 100.8C435.031 100.8 433.565 100.2 432.431 99C431.298 97.7333 430.731 95.5667 430.731 92.5V90.8H412.731V93.3C412.731 97.0333 413.265 100.167 414.331 102.7C415.398 105.233 416.931 107.3 418.931 108.9C420.998 110.433 423.498 111.5 426.431 112.1C429.431 112.767 432.865 113.1 436.731 113.1C444.931 113.1 451.198 111.4 455.531 108C459.865 104.533 462.031 99 462.031 91.4C462.031 87.0667 461.265 83.5667 459.731 80.9C458.265 78.1667 456.398 75.9667 454.131 74.3C451.865 72.6333 449.431 71.3 446.831 70.3C444.231 69.2333 441.798 68.2 439.531 67.2C437.265 66.2 435.365 65.0333 433.831 63.7C432.365 62.3 431.631 60.4333 431.631 58.1C431.631 56.5 432.098 55.0667 433.031 53.8C433.965 52.4667 435.431 51.8 437.431 51.8C439.231 51.8 440.565 52.5667 441.431 54.1C442.298 55.5667 442.731 57.3667 442.731 59.5V61.2Z" fill="#303030"/>
</svg>
